Input #0, video4linux2,v4l2, from '/dev/video0':
  Duration: N/A, start: 1607587419.975832, bitrate: N/A
    Stream #0:0: Video: mjpeg (Baseline), yuvj420p(pc, bt470bg/unknown/unknown), 1024x768, 30 fps, 30 tbr, 1000k tbn, 1000k tbc
Output #0, avi, to 'mjpeg_avi.avi':
  Metadata:
    ISFT            : Lavf58.64.100
    Stream #0:0: Video: mjpeg (Baseline) (MJPG / 0x47504A4D), yuvj420p(pc, bt470bg/unknown/unknown), 1024x768, q=2-31, 30 fps, 30 tbr, 60 tbn, 60 tbc
Stream mapping:
  Stream #0:0 -> #0:0 (copy)
Press [q] to stop, [?] for help
[avi @ 0x25cc7e0] Non-monotonous DTS in output stream 0:0; previous: 5, current: 5; changing to 6. This may result in incorrect timestamps in the output file.
[avi @ 0x25cc7e0] Non-monotonous DTS in output stream 0:0; previous: 6, current: 6; changing to 7. This may result in incorrect timestamps in the output file.
frame=   18 fps=0.0 q=-1.0 size=     768kB time=00:00:00.58 bitrate=10785.4kbits/s speed=1.15x    frame=   33 fps= 33 q=-1.0 size=    1280kB time=00:00:01.08 bitrate=9679.2kbits/s speed=1.07x    frame=   48 fps= 32 q=-1.0 size=    2048kB time=00:00:01.58 bitrate=10596.1kbits/s speed=1.05x    frame=   64 fps= 32 q=-1.0 size=    2560kB time=00:00:02.11 bitrate=9907.8kbits/s speed=1.05x    frame=   79 fps= 31 q=-1.0 size=    3328kB time=00:00:02.63 bitrate=10353.0kbits/s speed=1.04x    frame=   94 fps= 31 q=-1.0 size=    3840kB time=00:00:03.11 bitrate=10093.2kbits/s speed=1.03x    frame=  109 fps= 31 q=-1.0 size=    4608kB time=00:00:03.61 bitrate=10437.4kbits/s speed=1.02x    frame=  124 fps= 31 q=-1.0 size=    5120kB time=00:00:04.11 bitrate=10188.6kbits/s speed=1.02x    frame=  139 fps= 31 q=-1.0 size=    5888kB time=00:00:04.61 bitrate=10447.9kbits/s speed=1.02x    frame=  154 fps= 31 q=-1.0 size=    6400kB time=00:00:05.11 bitrate=10246.7kbits/s speed=1.01x    frame=  169 fps= 30 q=-1.0 size=    7168kB time=00:00:05.63 bitrate=10423.7kbits/s speed=1.02x    frame=  184 fps= 30 q=-1.0 size=    7680kB time=00:00:06.13 bitrate=10257.8kbits/s speed=1.01x    frame=  200 fps= 31 q=-1.0 size=    8448kB time=00:00:06.65 bitrate=10406.9kbits/s speed=1.01x    frame=  215 fps= 30 q=-1.0 size=    8960kB time=00:00:07.15 bitrate=10265.8kbits/s speed=1.01x    frame=  230 fps= 30 q=-1.0 size=    9728kB time=00:00:07.66 bitrate=10394.6kbits/s speed=1.01x    frame=  245 fps= 30 q=-1.0 size=   10240kB time=00:00:08.15 bitrate=10292.8kbits/s speed=1.01x    frame=  260 fps= 30 q=-1.0 size=   11008kB time=00:00:08.65 bitrate=10425.1kbits/s speed=1.01x    frame=  275 fps= 30 q=-1.0 size=   11520kB time=00:00:09.15 bitrate=10313.9kbits/s speed=1.01x    frame=  291 fps= 30 q=-1.0 size=   12032kB time=00:00:09.68 bitrate=10178.9kbits/s speed=1.01x    frame=  306 fps= 30 q=-1.0 size=   12800kB time=00:00:10.35 bitrate=10131.2kbits/s speed=1.01x    [avi @ 0x25cc7e0] Non-monotonous DTS in output stream 0:0; previous: 620, current: 620; changing to 621. This may result in incorrect timestamps in the output file.
[avi @ 0x25cc7e0] Non-monotonous DTS in output stream 0:0; previous: 621, current: 621; changing to 622. This may result in incorrect timestamps in the output file.
[avi @ 0x25cc7e0] Non-monotonous DTS in output stream 0:0; previous: 622, current: 621; changing to 623. This may result in incorrect timestamps in the output file.
[avi @ 0x25cc7e0] Non-monotonous DTS in output stream 0:0; previous: 623, current: 622; changing to 624. This may result in incorrect timestamps in the output file.
[avi @ 0x25cc7e0] Non-monotonous DTS in output stream 0:0; previous: 624, current: 622; changing to 625. This may result in incorrect timestamps in the output file.
[avi @ 0x25cc7e0] Non-monotonous DTS in output stream 0:0; previous: 625, current: 623; changing to 626. This may result in incorrect timestamps in the output file.
[avi @ 0x25cc7e0] Non-monotonous DTS in output stream 0:0; previous: 626, current: 624; changing to 627. This may result in incorrect timestamps in the output file.
[avi @ 0x25cc7e0] Non-monotonous DTS in output stream 0:0; previous: 627, current: 626; changing to 628. This may result in incorrect timestamps in the output file.
[avi @ 0x25cc7e0] Non-monotonous DTS in output stream 0:0; previous: 628, current: 628; changing to 629. This may result in incorrect timestamps in the output file.
frame=  325 fps= 30 q=-1.0 size=   13568kB time=00:00:10.81 bitrate=10275.7kbits/s speed=1.01x    frame=  340 fps= 30 q=-1.0 size=   14080kB time=00:00:11.31 bitrate=10192.3kbits/s speed=1.01x    frame=  356 fps= 30 q=-1.0 size=   14848kB time=00:00:11.85 bitrate=10264.5kbits/s speed=1.01x    frame=  371 fps= 30 q=-1.0 size=   15360kB time=00:00:12.35 bitrate=10188.6kbits/s speed=1.01x    frame=  386 fps= 30 q=-1.0 size=   15872kB time=00:00:12.86 bitrate=10105.4kbits/s speed=1.01x    frame=  401 fps= 30 q=-1.0 size=   16640kB time=00:00:13.35 bitrate=10210.9kbits/s speed=1.01x    frame=  416 fps= 30 q=-1.0 size=   17152kB time=00:00:13.86 bitrate=10132.9kbits/s speed=1.01x    frame=  431 fps= 30 q=-1.0 size=   17920kB time=00:00:14.35 bitrate=10230.0kbits/s speed=1.01x    frame=  446 fps= 30 q=-1.0 size=   18432kB time=00:00:14.85 bitrate=10168.0kbits/s speed=   1x    frame=  462 fps= 30 q=-1.0 size=   19200kB time=00:00:15.38 bitrate=10224.5kbits/s speed=1.01x    frame=  477 fps= 30 q=-1.0 size=   19712kB time=00:00:15.88 bitrate=10166.7kbits/s speed=1.01x    frame=  492 fps= 30 q=-1.0 size=   20480kB time=00:00:16.38 bitrate=10240.4kbits/s speed=1.01x    frame=  507 fps= 30 q=-1.0 size=   20992kB time=00:00:16.88 bitrate=10185.6kbits/s speed=   1x    frame=  522 fps= 30 q=-1.0 size=   21760kB time=00:00:17.38 bitrate=10254.5kbits/s speed=   1x    frame=  537 fps= 30 q=-1.0 size=   22272kB time=00:00:17.88 bitrate=10202.4kbits/s speed=   1x    frame=  553 fps= 30 q=-1.0 size=   23040kB time=00:00:18.41 bitrate=10248.5kbits/s speed=1.01x    frame=  568 fps= 30 q=-1.0 size=   23552kB time=00:00:18.91 bitrate=10199.4kbits/s speed=   1x    frame=  583 fps= 30 q=-1.0 size=   24320kB time=00:00:19.41 bitrate=10260.7kbits/s speed=   1x    frame=  598 fps= 30 q=-1.0 size=   24832kB time=00:00:19.91 bitrate=10213.7kbits/s speed=   1x    frame=  614 fps= 30 q=-1.0 size=   25600kB time=00:00:20.45 bitrate=10255.0kbits/s speed=   1x    frame=  629 fps= 30 q=-1.0 size=   26368kB time=00:00:20.95 bitrate=10310.6kbits/s speed=   1x    frame=  644 fps= 30 q=-1.0 size=   26880kB time=00:00:21.45 bitrate=10265.8kbits/s speed=   1x    frame=  659 fps= 30 q=-1.0 size=   27392kB time=00:00:21.95 bitrate=10223.0kbits/s speed=   1x    frame=  674 fps= 30 q=-1.0 size=   28160kB time=00:00:22.45 bitrate=10275.6kbits/s speed=   1x    frame=  689 fps= 30 q=-1.0 size=   28672kB time=00:00:22.95 bitrate=10234.5kbits/s speed=   1x    frame=  704 fps= 30 q=-1.0 size=   29440kB time=00:00:23.45 bitrate=10284.5kbits/s speed=   1x    frame=  720 fps= 30 q=-1.0 size=   30208kB time=00:00:23.98 bitrate=10318.2kbits/s speed=   1x    frame=  735 fps= 30 q=-1.0 size=   30720kB time=00:00:24.48 bitrate=10278.8kbits/s speed=   1x    frame=  750 fps= 30 q=-1.0 size=   31232kB time=00:00:24.98 bitrate=10240.9kbits/s speed=   1x    frame=  765 fps= 30 q=-1.0 size=   32000kB time=00:00:25.48 bitrate=10286.9kbits/s speed=   1x    frame=  780 fps= 30 q=-1.0 size=   32512kB time=00:00:25.98 bitrate=10250.4kbits/s speed=   1x    frame=  795 fps= 30 q=-1.0 size=   33280kB time=00:00:26.48 bitrate=10294.4kbits/s speed=   1x    frame=  810 fps= 30 q=-1.0 size=   33792kB time=00:00:26.98 bitrate=10259.1kbits/s speed=   1x    frame=  826 fps= 30 q=-1.0 size=   34560kB time=00:00:27.51 bitrate=10288.9kbits/s speed=   1x    frame=  841 fps= 30 q=-1.0 size=   35072kB time=00:00:28.01 bitrate=10255.0kbits/s speed=   1x    frame=  856 fps= 30 q=-1.0 size=   35584kB time=00:00:28.51 bitrate=10222.2kbits/s speed=   1x    frame=  871 fps= 30 q=-1.0 size=   36352kB time=00:00:29.03 bitrate=10257.0kbits/s speed=   1x    frame=  886 fps= 30 q=-1.0 size=   36864kB time=00:00:29.51 bitrate=10231.2kbits/s speed=   1x    frame=  901 fps= 30 q=-1.0 size=   37376kB time=00:00:30.01 bitrate=10200.5kbits/s speed=   1x    frame=  916 fps= 30 q=-1.0 size=   38144kB time=00:00:30.51 bitrate=10239.5kbits/s speed=   1x    frame=  932 fps= 30 q=-1.0 size=   38656kB time=00:00:31.05 bitrate=10198.7kbits/s speed=   1x    frame=  947 fps= 30 q=-1.0 size=   39168kB time=00:00:31.55 bitrate=10170.0kbits/s speed=   1x    frame=  962 fps= 30 q=-1.0 size=   39936kB time=00:00:32.05 bitrate=10207.7kbits/s speed=   1x    frame=  977 fps= 30 q=-1.0 size=   40448kB time=00:00:32.55 bitrate=10179.7kbits/s speed=   1x    frame=  992 fps= 30 q=-1.0 size=   40960kB time=00:00:33.05 bitrate=10152.6kbits/s speed=   1x    frame= 1007 fps= 30 q=-1.0 size=   41728kB time=00:00:33.55 bitrate=10188.8kbits/s speed=   1x    frame= 1022 fps= 30 q=-1.0 size=   42240kB time=00:00:34.05 bitrate=10162.4kbits/s speed=   1x    frame= 1038 fps= 30 q=-1.0 size=   43008kB time=00:00:34.58 bitrate=10187.6kbits/s speed=   1x    frame= 1053 fps= 30 q=-1.0 size=   43520kB time=00:00:35.08 bitrate=10162.0kbits/s speed=   1x    frame= 1068 fps= 30 q=-1.0 size=   44032kB time=00:00:35.58 bitrate=10137.1kbits/s speed=   1x    frame= 1083 fps= 30 q=-1.0 size=   44800kB time=00:00:36.08 bitrate=10170.9kbits/s speed=   1x    frame= 1098 fps= 30 q=-1.0 size=   45312kB time=00:00:36.58 bitrate=10146.6kbits/s speed=   1x    frame= 1113 fps= 30 q=-1.0 size=   46080kB time=00:00:37.08 bitrate=10179.4kbits/s speed=   1x    frame= 1129 fps= 30 q=-1.0 size=   46592kB time=00:00:37.61 bitrate=10146.6kbits/s speed=   1x    frame= 1144 fps= 30 q=-1.0 size=   47360kB time=00:00:38.11 bitrate=10178.6kbits/s speed=   1x    frame= 1159 fps= 30 q=-1.0 size=   47872kB time=00:00:38.61 bitrate=10155.4kbits/s speed=   1x    frame= 1174 fps= 30 q=-1.0 size=   48640kB time=00:00:39.11 bitrate=10186.4kbits/s speed=   1x    frame= 1189 fps= 30 q=-1.0 size=   49152kB time=00:00:39.61 bitrate=10163.7kbits/s speed=   1x    frame= 1204 fps= 30 q=-1.0 size=   49920kB time=00:00:40.11 bitrate=10193.9kbits/s speed=   1x    frame= 1215 fps= 30 q=-1.0 size=   50432kB time=00:00:40.80 bitrate=10126.0kbits/s speed=   1x    [avi @ 0x25cc7e0] Non-monotonous DTS in output stream 0:0; previous: 2448, current: 2448; changing to 2449. This may result in incorrect timestamps in the output file.
[avi @ 0x25cc7e0] Non-monotonous DTS in output stream 0:0; previous: 2449, current: 2448; changing to 2450. This may result in incorrect timestamps in the output file.
[avi @ 0x25cc7e0] Non-monotonous DTS in output stream 0:0; previous: 2450, current: 2449; changing to 2451. This may result in incorrect timestamps in the output file.
[avi @ 0x25cc7e0] Non-monotonous DTS in output stream 0:0; previous: 2451, current: 2449; changing to 2452. This may result in incorrect timestamps in the output file.
[avi @ 0x25cc7e0] Non-monotonous DTS in output stream 0:0; previous: 2452, current: 2450; changing to 2453. This may result in incorrect timestamps in the output file.
[avi @ 0x25cc7e0] Non-monotonous DTS in output stream 0:0; previous: 2453, current: 2450; changing to 2454. This may result in incorrect timestamps in the output file.
[avi @ 0x25cc7e0] Non-monotonous DTS in output stream 0:0; previous: 2454, current: 2450; changing to 2455. This may result in incorrect timestamps in the output file.
[avi @ 0x25cc7e0] Non-monotonous DTS in output stream 0:0; previous: 2455, current: 2450; changing to 2456. This may result in incorrect timestamps in the output file.
[avi @ 0x25cc7e0] Non-monotonous DTS in output stream 0:0; previous: 2456, current: 2451; changing to 2457. This may result in incorrect timestamps in the output file.
[avi @ 0x25cc7e0] Non-monotonous DTS in output stream 0:0; previous: 2457, current: 2451; changing to 2458. This may result in incorrect timestamps in the output file.
[avi @ 0x25cc7e0] Non-monotonous DTS in output stream 0:0; previous: 2458, current: 2452; changing to 2459. This may result in incorrect timestamps in the output file.
[avi @ 0x25cc7e0] Non-monotonous DTS in output stream 0:0; previous: 2459, current: 2453; changing to 2460. This may result in incorrect timestamps in the output file.
[avi @ 0x25cc7e0] Non-monotonous DTS in output stream 0:0; previous: 2460, current: 2456; changing to 2461. This may result in incorrect timestamps in the output file.
[avi @ 0x25cc7e0] Non-monotonous DTS in output stream 0:0; previous: 2461, current: 2458; changing to 2462. This may result in incorrect timestamps in the output file.
[avi @ 0x25cc7e0] Non-monotonous DTS in output stream 0:0; previous: 2462, current: 2460; changing to 2463. This may result in incorrect timestamps in the output file.
[avi @ 0x25cc7e0] Non-monotonous DTS in output stream 0:0; previous: 2463, current: 2462; changing to 2464. This may result in incorrect timestamps in the output file.
[avi @ 0x25cc7e0] Non-monotonous DTS in output stream 0:0; previous: 2464, current: 2463; changing to 2465. This may result in incorrect timestamps in the output file.
frame= 1240 fps= 30 q=-1.0 size=   51456kB time=00:00:41.31 bitrate=10202.4kbits/s speed=   1x    frame= 1255 fps= 30 q=-1.0 size=   51968kB time=00:00:41.81 bitrate=10180.7kbits/s speed=   1x    frame= 1270 fps= 30 q=-1.0 size=   52736kB time=00:00:42.31 bitrate=10209.1kbits/s speed=   1x    frame= 1285 fps= 30 q=-1.0 size=   53248kB time=00:00:42.81 bitrate=10187.8kbits/s speed=   1x    frame= 1300 fps= 30 q=-1.0 size=   54016kB time=00:00:43.31 bitrate=10215.4kbits/s speed=   1x    frame= 1315 fps= 30 q=-1.0 size=   54528kB time=00:00:43.81 bitrate=10194.6kbits/s speed=   1x    frame= 1331 fps= 30 q=-1.0 size=   55296kB time=00:00:44.35 bitrate=10213.9kbits/s speed=   1x    frame= 1346 fps= 30 q=-1.0 size=   55808kB time=00:00:44.85 bitrate=10193.5kbits/s speed=   1x    frame= 1361 fps= 30 q=-1.0 size=   56576kB time=00:00:45.35 bitrate=10219.9kbits/s speed=   1x    frame= 1366 fps= 30 q=-1.0 size=   56832kB time=00:00:46.20 bitrate=10077.2kbits/s speed=   1x    [avi @ 0x25cc7e0] Non-monotonous DTS in output stream 0:0; previous: 2771, current: 2771; changing to 2772. This may result in incorrect timestamps in the output file.
[avi @ 0x25cc7e0] Non-monotonous DTS in output stream 0:0; previous: 2772, current: 2771; changing to 2773. This may result in incorrect timestamps in the output file.
[avi @ 0x25cc7e0] Non-monotonous DTS in output stream 0:0; previous: 2773, current: 2772; changing to 2774. This may result in incorrect timestamps in the output file.
[avi @ 0x25cc7e0] Non-monotonous DTS in output stream 0:0; previous: 2774, current: 2772; changing to 2775. This may result in incorrect timestamps in the output file.
[avi @ 0x25cc7e0] Non-monotonous DTS in output stream 0:0; previous: 2775, current: 2772; changing to 2776. This may result in incorrect timestamps in the output file.
[avi @ 0x25cc7e0] Non-monotonous DTS in output stream 0:0; previous: 2776, current: 2773; changing to 2777. This may result in incorrect timestamps in the output file.
[avi @ 0x25cc7e0] Non-monotonous DTS in output stream 0:0; previous: 2777, current: 2773; changing to 2778. This may result in incorrect timestamps in the output file.
[avi @ 0x25cc7e0] Non-monotonous DTS in output stream 0:0; previous: 2778, current: 2774; changing to 2779. This may result in incorrect timestamps in the output file.
[avi @ 0x25cc7e0] Non-monotonous DTS in output stream 0:0; previous: 2779, current: 2774; changing to 2780. This may result in incorrect timestamps in the output file.
[avi @ 0x25cc7e0] Non-monotonous DTS in output stream 0:0; previous: 2780, current: 2775; changing to 2781. This may result in incorrect timestamps in the output file.
[avi @ 0x25cc7e0] Non-monotonous DTS in output stream 0:0; previous: 2781, current: 2775; changing to 2782. This may result in incorrect timestamps in the output file.
[avi @ 0x25cc7e0] Non-monotonous DTS in output stream 0:0; previous: 2782, current: 2775; changing to 2783. This may result in incorrect timestamps in the output file.
[avi @ 0x25cc7e0] Non-monotonous DTS in output stream 0:0; previous: 2783, current: 2776; changing to 2784. This may result in incorrect timestamps in the output file.
[avi @ 0x25cc7e0] Non-monotonous DTS in output stream 0:0; previous: 2784, current: 2776; changing to 2785. This may result in incorrect timestamps in the output file.
[avi @ 0x25cc7e0] Non-monotonous DTS in output stream 0:0; previous: 2785, current: 2776; changing to 2786. This may result in incorrect timestamps in the output file.
[avi @ 0x25cc7e0] Non-monotonous DTS in output stream 0:0; previous: 2786, current: 2776; changing to 2787. This may result in incorrect timestamps in the output file.
[avi @ 0x25cc7e0] Non-monotonous DTS in output stream 0:0; previous: 2787, current: 2777; changing to 2788. This may result in incorrect timestamps in the output file.
[avi @ 0x25cc7e0] Non-monotonous DTS in output stream 0:0; previous: 2788, current: 2777; changing to 2789. This may result in incorrect timestamps in the output file.
[avi @ 0x25cc7e0] Non-monotonous DTS in output stream 0:0; previous: 2789, current: 2777; changing to 2790. This may result in incorrect timestamps in the output file.
[avi @ 0x25cc7e0] Non-monotonous DTS in output stream 0:0; previous: 2790, current: 2778; changing to 2791. This may result in incorrect timestamps in the output file.
[avi @ 0x25cc7e0] Non-monotonous DTS in output stream 0:0; previous: 2791, current: 2778; changing to 2792. This may result in incorrect timestamps in the output file.
[avi @ 0x25cc7e0] Non-monotonous DTS in output stream 0:0; previous: 2792, current: 2778; changing to 2793. This may result in incorrect timestamps in the output file.
[avi @ 0x25cc7e0] Non-monotonous DTS in output stream 0:0; previous: 2793, current: 2778; changing to 2794. This may result in incorrect timestamps in the output file.
[avi @ 0x25cc7e0] Non-monotonous DTS in output stream 0:0; previous: 2794, current: 2779; changing to 2795. This may result in incorrect timestamps in the output file.
[avi @ 0x25cc7e0] Non-monotonous DTS in output stream 0:0; previous: 2795, current: 2780; changing to 2796. This may result in incorrect timestamps in the output file.
[avi @ 0x25cc7e0] Non-monotonous DTS in output stream 0:0; previous: 2796, current: 2782; changing to 2797. This may result in incorrect timestamps in the output file.
[avi @ 0x25cc7e0] Non-monotonous DTS in output stream 0:0; previous: 2797, current: 2784; changing to 2798. This may result in incorrect timestamps in the output file.
[avi @ 0x25cc7e0] Non-monotonous DTS in output stream 0:0; previous: 2798, current: 2785; changing to 2799. This may result in incorrect timestamps in the output file.
[avi @ 0x25cc7e0] Non-monotonous DTS in output stream 0:0; previous: 2799, current: 2788; changing to 2800. This may result in incorrect timestamps in the output file.
[avi @ 0x25cc7e0] Non-monotonous DTS in output stream 0:0; previous: 2800, current: 2790; changing to 2801. This may result in incorrect timestamps in the output file.
[avi @ 0x25cc7e0] Non-monotonous DTS in output stream 0:0; previous: 2801, current: 2792; changing to 2802. This may result in incorrect timestamps in the output file.
[avi @ 0x25cc7e0] Non-monotonous DTS in output stream 0:0; previous: 2802, current: 2794; changing to 2803. This may result in incorrect timestamps in the output file.
[avi @ 0x25cc7e0] Non-monotonous DTS in output stream 0:0; previous: 2803, current: 2796; changing to 2804. This may result in incorrect timestamps in the output file.
[avi @ 0x25cc7e0] Non-monotonous DTS in output stream 0:0; previous: 2804, current: 2798; changing to 2805. This may result in incorrect timestamps in the output file.
[avi @ 0x25cc7e0] Non-monotonous DTS in output stream 0:0; previous: 2805, current: 2800; changing to 2806. This may result in incorrect timestamps in the output file.
frame= 1401 fps= 30 q=-1.0 size=   58112kB time=00:00:46.78 bitrate=10175.7kbits/s speed=   1x    [avi @ 0x25cc7e0] Non-monotonous DTS in output stream 0:0; previous: 2806, current: 2801; changing to 2807. This may result in incorrect timestamps in the output file.
[avi @ 0x25cc7e0] Non-monotonous DTS in output stream 0:0; previous: 2807, current: 2804; changing to 2808. This may result in incorrect timestamps in the output file.
[avi @ 0x25cc7e0] Non-monotonous DTS in output stream 0:0; previous: 2808, current: 2806; changing to 2809. This may result in incorrect timestamps in the output file.
[avi @ 0x25cc7e0] Non-monotonous DTS in output stream 0:0; previous: 2809, current: 2808; changing to 2810. This may result in incorrect timestamps in the output file.
[avi @ 0x25cc7e0] Non-monotonous DTS in output stream 0:0; previous: 2810, current: 2810; changing to 2811. This may result in incorrect timestamps in the output file.
frame= 1416 fps= 30 q=-1.0 size=   58880kB time=00:00:47.18 bitrate=10222.8kbits/s speed=   1x    frame= 1431 fps= 30 q=-1.0 size=   59392kB time=00:00:47.68 bitrate=10203.5kbits/s speed=   1x    frame= 1446 fps= 30 q=-1.0 size=   59904kB time=00:00:48.18 bitrate=10184.7kbits/s speed=   1x    frame= 1461 fps= 30 q=-1.0 size=   60672kB time=00:00:48.68 bitrate=10209.3kbits/s speed=   1x    frame= 1477 fps= 30 q=-1.0 size=   61184kB time=00:00:49.20 bitrate=10187.4kbits/s speed=   1x    frame= 1492 fps= 30 q=-1.0 size=   61952kB time=00:00:49.71 bitrate=10208.1kbits/s speed=   1x    frame= 1507 fps= 30 q=-1.0 size=   62464kB time=00:00:50.20 bitrate=10193.3kbits/s speed=   1x    frame= 1522 fps= 30 q=-1.0 size=   62976kB time=00:00:50.71 bitrate=10172.2kbits/s speed=   1x    frame= 1537 fps= 30 q=-1.0 size=   63744kB time=00:00:51.20 bitrate=10199.0kbits/s speed=   1x    frame= 1552 fps= 30 q=-1.0 size=   64256kB time=00:00:51.71 bitrate=10178.2kbits/s speed=   1x    frame= 1567 fps= 30 q=-1.0 size=   64768kB time=00:00:52.20 bitrate=10164.4kbits/s speed=   1x    frame= 1582 fps= 30 q=-1.0 size=   65536kB time=00:00:52.71 bitrate=10184.1kbits/s speed=   1x    frame= 1598 fps= 30 q=-1.0 size=   66048kB time=00:00:53.25 bitrate=10160.8kbits/s speed=   1x    frame= 1613 fps= 30 q=-1.0 size=   66816kB time=00:00:53.75 bitrate=10183.4kbits/s speed=   1x    frame= 1628 fps= 30 q=-1.0 size=   67328kB time=00:00:54.25 bitrate=10166.8kbits/s speed=   1x    frame= 1643 fps= 30 q=-1.0 size=   67840kB time=00:00:54.75 bitrate=10150.6kbits/s speed=   1x    frame= 1658 fps= 30 q=-1.0 size=   68608kB time=00:00:55.25 bitrate=10172.6kbits/s speed=   1x    frame= 1673 fps= 30 q=-1.0 size=   69120kB time=00:00:55.75 bitrate=10156.6kbits/s speed=   1x    frame= 1688 fps= 30 q=-1.0 size=   69888kB time=00:00:56.25 bitrate=10178.2kbits/s speed=   1x    frame= 1704 fps= 30 q=-1.0 size=   70656kB time=00:00:56.78 bitrate=10193.4kbits/s speed=   1x    frame= 1719 fps= 30 q=-1.0 size=   71168kB time=00:00:57.28 bitrate=10177.6kbits/s speed=   1x    frame= 1734 fps= 30 q=-1.0 size=   71936kB time=00:00:57.76 bitrate=10201.4kbits/s speed=   1x    frame= 1749 fps= 30 q=-1.0 size=   72448kB time=00:00:58.28 bitrate=10182.9kbits/s speed=   1x    frame= 1764 fps= 30 q=-1.0 size=   73216kB time=00:00:58.78 bitrate=10203.3kbits/s speed=   1x    frame= 1779 fps= 30 q=-1.0 size=   73728kB time=00:00:59.28 bitrate=10188.0kbits/s speed=   1x    frame= 1795 fps= 30 q=-1.0 size=   74496kB time=00:00:59.80 bitrate=10205.2kbits/s speed=   1x    frame= 1801 fps= 30 q=-1.0 Lsize=   74885kB time=00:01:00.01 bitrate=10221.5kbits/s speed=   1x    
video:74795kB audio:0kB subtitle:0kB other streams:0kB global headers:0kB muxing overhead: 0.121466%
